<?xml version="1.0" encoding="UTF-8" standalone="no"?>
<!DOCTYPE svg PUBLIC "-//W3C//DTD SVG 1.1//EN"
 "http://www.w3.org/Graphics/SVG/1.1/DTD/svg11.dtd">
<!-- Generated by graphviz version 2.50.0 (0)
 -->
<!-- Pages: 1 -->
<svg width="619pt" height="44pt"
 viewBox="0.00 0.00 618.50 44.00" xmlns="http://www.w3.org/2000/svg" xmlns:xlink="http://www.w3.org/1999/xlink">
<g id="graph0" class="graph" transform="scale(1 1) rotate(0) translate(4 40)">
<polygon fill="white" stroke="transparent" points="-4,4 -4,-40 614.5,-40 614.5,4 -4,4"/>
<!-- init -->
<g id="node1" class="node">
<title>init</title>
<g id="a_node1"><a xlink:href="../research/sphinx/app_init/" xlink:title="&lt;b&gt;INITIALIZATION&lt;/b&gt;" target="_top">
<polygon fill="#53868b" stroke="transparent" points="117,-30 0,-30 0,-6 117,-6 129,-18 117,-30"/>
<text text-anchor="start" x="8" y="-15.3" font-family="Times,serif" font-weight="bold" font-size="14.00" fill="white">INITIALIZATION</text>
</a>
</g>
</g>
<!-- read -->
<g id="node2" class="node">
<title>read</title>
<g id="a_node2"><a xlink:href="../research/sphinx/read/" xlink:title="READING" target="_top">
<polygon fill="lightgrey" stroke="transparent" points="212,-30 147,-30 147,-6 212,-6 224,-18 212,-30"/>
<text text-anchor="middle" x="185.5" y="-14.3" font-family="Times,serif" font-size="14.00">READING</text>
</a>
</g>
</g>
<!-- consistency -->
<g id="node3" class="node">
<title>consistency</title>
<g id="a_node3"><a xlink:href="../research/sphinx/consistency/" xlink:title="CONSISTENCY_CHECK" target="_top">
<polygon fill="lightgrey" stroke="transparent" points="392.5,-30 242.5,-30 242.5,-6 392.5,-6 404.5,-18 392.5,-30"/>
<text text-anchor="middle" x="323.5" y="-14.3" font-family="Times,serif" font-size="14.00">CONSISTENCY_CHECK</text>
</a>
</g>
</g>
<!-- resolve -->
<g id="node4" class="node">
<title>resolve</title>
<g id="a_node4"><a xlink:href="../research/sphinx/resolve/" xlink:title="RESOLVING" target="_top">
<polygon fill="lightgrey" stroke="transparent" points="504,-30 423,-30 423,-6 504,-6 516,-18 504,-30"/>
<text text-anchor="middle" x="469.5" y="-14.3" font-family="Times,serif" font-size="14.00">RESOLVING</text>
</a>
</g>
</g>
<!-- write -->
<g id="node5" class="node">
<title>write</title>
<g id="a_node5"><a xlink:href="../research/sphinx/write/" xlink:title="WRITING" target="_top">
<polygon fill="lightgrey" stroke="transparent" points="598.5,-30 534.5,-30 534.5,-6 598.5,-6 610.5,-18 598.5,-30"/>
<text text-anchor="middle" x="572.5" y="-14.3" font-family="Times,serif" font-size="14.00">WRITING</text>
</a>
</g>
</g>
</g>
</svg>
