<?xml version="1.0" encoding="UTF-8" standalone="no"?>
<!DOCTYPE svg PUBLIC "-//W3C//DTD SVG 1.1//EN"
 "http://www.w3.org/Graphics/SVG/1.1/DTD/svg11.dtd">
<!-- Generated by graphviz version 2.50.0 (0)
 -->
<!-- Pages: 1 -->
<svg width="665pt" height="44pt"
 viewBox="0.00 0.00 664.50 44.00" xmlns="http://www.w3.org/2000/svg" xmlns:xlink="http://www.w3.org/1999/xlink">
<g id="graph0" class="graph" transform="scale(1 1) rotate(0) translate(4 40)">
<polygon fill="white" stroke="transparent" points="-4,4 -4,-40 660.5,-40 660.5,4 -4,4"/>
<!-- init -->
<g id="node1" class="node">
<title>init</title>
<g id="a_node1"><a xlink:href="../research/sphinx/app_init/" xlink:title="INITIALIZATION &#160;" target="_top">
<polygon fill="lightgrey" stroke="transparent" points="115,-30 0,-30 0,-6 115,-6 127,-18 115,-30"/>
<text text-anchor="middle" x="63.5" y="-14.3" font-family="Times,serif" font-size="14.00">INITIALIZATION &#160;</text>
</a>
</g>
</g>
<!-- read -->
<g id="node2" class="node">
<title>read</title>
<g id="a_node2"><a xlink:href="../research/sphinx/read/" xlink:title="READING &#160;" target="_top">
<polygon fill="lightgrey" stroke="transparent" points="218,-30 145,-30 145,-6 218,-6 230,-18 218,-30"/>
<text text-anchor="middle" x="187.5" y="-14.3" font-family="Times,serif" font-size="14.00">READING &#160;</text>
</a>
</g>
</g>
<!-- consistency -->
<g id="node3" class="node">
<title>consistency</title>
<g id="a_node3"><a xlink:href="../research/sphinx/consistency/" xlink:title="CONSISTENCY_CHECK &#160;" target="_top">
<polygon fill="lightgrey" stroke="transparent" points="406.5,-30 248.5,-30 248.5,-6 406.5,-6 418.5,-18 406.5,-30"/>
<text text-anchor="middle" x="333.5" y="-14.3" font-family="Times,serif" font-size="14.00">CONSISTENCY_CHECK &#160;</text>
</a>
</g>
</g>
<!-- resolve -->
<g id="node4" class="node">
<title>resolve</title>
<g id="a_node4"><a xlink:href="../research/sphinx/resolve/" xlink:title="&lt;b&gt;RESOLVING &amp;#160;&amp;#160;&lt;/b&gt;" target="_top">
<polygon fill="#53868b" stroke="transparent" points="534.5,-30 436.5,-30 436.5,-6 534.5,-6 546.5,-18 534.5,-30"/>
<text text-anchor="start" x="444.5" y="-15.3" font-family="Times,serif" font-weight="bold" font-size="14.00" fill="white">RESOLVING   </text>
</a>
</g>
</g>
<!-- write -->
<g id="node5" class="node">
<title>write</title>
<g id="a_node5"><a xlink:href="../research/sphinx/write/" xlink:title="&lt;b&gt;WRITING &amp;#160;&amp;#160;&lt;/b&gt;" target="_top">
<polygon fill="#53868b" stroke="transparent" points="644.5,-30 564.5,-30 564.5,-6 644.5,-6 656.5,-18 644.5,-30"/>
<text text-anchor="start" x="572.5" y="-15.3" font-family="Times,serif" font-weight="bold" font-size="14.00" fill="white">WRITING   </text>
</a>
</g>
</g>
</g>
</svg>
