<?xml version="1.0" encoding="UTF-8" standalone="no"?>
<!DOCTYPE svg PUBLIC "-//W3C//DTD SVG 1.1//EN"
 "http://www.w3.org/Graphics/SVG/1.1/DTD/svg11.dtd">
<!-- Generated by graphviz version 2.50.0 (0)
 -->
<!-- Pages: 1 -->
<svg width="661pt" height="44pt"
 viewBox="0.00 0.00 660.50 44.00" xmlns="http://www.w3.org/2000/svg" xmlns:xlink="http://www.w3.org/1999/xlink">
<g id="graph0" class="graph" transform="scale(1 1) rotate(0) translate(4 40)">
<polygon fill="white" stroke="transparent" points="-4,4 -4,-40 656.5,-40 656.5,4 -4,4"/>
<!-- init -->
<g id="node1" class="node">
<title>init</title>
<g id="a_node1"><a xlink:href="../research/sphinx/app_init/" xlink:title="&lt;b&gt;INITIALIZATION &amp;#160;&amp;#160;&lt;/b&gt;" target="_top">
<polygon fill="#53868b" stroke="transparent" points="128,-30 0,-30 0,-6 128,-6 140,-18 128,-30"/>
<text text-anchor="start" x="8" y="-15.3" font-family="Times,serif" font-weight="bold" font-size="14.00" fill="white">INITIALIZATION   </text>
</a>
</g>
</g>
<!-- read -->
<g id="node2" class="node">
<title>read</title>
<g id="a_node2"><a xlink:href="../research/sphinx/read/" xlink:title="READING &#160;" target="_top">
<polygon fill="lightgrey" stroke="transparent" points="231.5,-30 158.5,-30 158.5,-6 231.5,-6 243.5,-18 231.5,-30"/>
<text text-anchor="middle" x="201" y="-14.3" font-family="Times,serif" font-size="14.00">READING &#160;</text>
</a>
</g>
</g>
<!-- consistency -->
<g id="node3" class="node">
<title>consistency</title>
<g id="a_node3"><a xlink:href="../research/sphinx/consistency/" xlink:title="CONSISTENCY_CHECK &#160;" target="_top">
<polygon fill="lightgrey" stroke="transparent" points="420,-30 262,-30 262,-6 420,-6 432,-18 420,-30"/>
<text text-anchor="middle" x="347" y="-14.3" font-family="Times,serif" font-size="14.00">CONSISTENCY_CHECK &#160;</text>
</a>
</g>
</g>
<!-- resolve -->
<g id="node4" class="node">
<title>resolve</title>
<g id="a_node4"><a xlink:href="../research/sphinx/resolve/" xlink:title="RESOLVING &#160;" target="_top">
<polygon fill="lightgrey" stroke="transparent" points="539.5,-30 450.5,-30 450.5,-6 539.5,-6 551.5,-18 539.5,-30"/>
<text text-anchor="middle" x="501" y="-14.3" font-family="Times,serif" font-size="14.00">RESOLVING &#160;</text>
</a>
</g>
</g>
<!-- write -->
<g id="node5" class="node">
<title>write</title>
<g id="a_node5"><a xlink:href="../research/sphinx/write/" xlink:title="WRITING &#160;" target="_top">
<polygon fill="lightgrey" stroke="transparent" points="640.5,-30 569.5,-30 569.5,-6 640.5,-6 652.5,-18 640.5,-30"/>
<text text-anchor="middle" x="611" y="-14.3" font-family="Times,serif" font-size="14.00">WRITING &#160;</text>
</a>
</g>
</g>
</g>
</svg>
