<?xml version="1.0" encoding="UTF-8" standalone="no"?>
<!DOCTYPE svg PUBLIC "-//W3C//DTD SVG 1.1//EN"
 "http://www.w3.org/Graphics/SVG/1.1/DTD/svg11.dtd">
<!-- Generated by graphviz version 2.50.0 (0)
 -->
<!-- Pages: 1 -->
<svg width="633pt" height="44pt"
 viewBox="0.00 0.00 633.00 44.00" xmlns="http://www.w3.org/2000/svg" xmlns:xlink="http://www.w3.org/1999/xlink">
<g id="graph0" class="graph" transform="scale(1 1) rotate(0) translate(4 40)">
<polygon fill="white" stroke="transparent" points="-4,4 -4,-40 629,-40 629,4 -4,4"/>
<!-- init -->
<g id="node1" class="node">
<title>init</title>
<g id="a_node1"><a xlink:href="../app_init/" xlink:title="INITIALIZATION" target="_top">
<polygon fill="lightgrey" stroke="transparent" points="107,-30 0,-30 0,-6 107,-6 119,-18 107,-30"/>
<text text-anchor="middle" x="59.5" y="-14.3" font-family="Times,serif" font-size="14.00">INITIALIZATION</text>
</a>
</g>
</g>
<!-- read -->
<g id="node2" class="node">
<title>read</title>
<g id="a_node2"><a xlink:href="../read/" xlink:title="&lt;b&gt;READING&lt;/b&gt;" target="_top">
<polygon fill="#53868b" stroke="transparent" points="206,-30 137,-30 137,-6 206,-6 218,-18 206,-30"/>
<text text-anchor="start" x="145" y="-15.3" font-family="Times,serif" font-weight="bold" font-size="14.00" fill="white">READING</text>
</a>
</g>
</g>
<!-- consistency -->
<g id="node3" class="node">
<title>consistency</title>
<g id="a_node3"><a xlink:href="../consistency/" xlink:title="&lt;b&gt;CONSISTENCY_CHECK&lt;/b&gt;" target="_top">
<polygon fill="#53868b" stroke="transparent" points="397,-30 236,-30 236,-6 397,-6 409,-18 397,-30"/>
<text text-anchor="start" x="244" y="-15.3" font-family="Times,serif" font-weight="bold" font-size="14.00" fill="white">CONSISTENCY_CHECK</text>
</a>
</g>
</g>
<!-- resolve -->
<g id="node4" class="node">
<title>resolve</title>
<g id="a_node4"><a xlink:href="../resolve/" xlink:title="&lt;b&gt;RESOLVING&lt;/b&gt;" target="_top">
<polygon fill="#53868b" stroke="transparent" points="514,-30 427,-30 427,-6 514,-6 526,-18 514,-30"/>
<text text-anchor="start" x="435" y="-15.3" font-family="Times,serif" font-weight="bold" font-size="14.00" fill="white">RESOLVING</text>
</a>
</g>
</g>
<!-- write -->
<g id="node5" class="node">
<title>write</title>
<g id="a_node5"><a xlink:href="../sphinx/write/" xlink:title="&lt;b&gt;WRITING&lt;/b&gt;" target="_top">
<polygon fill="#53868b" stroke="transparent" points="613,-30 544,-30 544,-6 613,-6 625,-18 613,-30"/>
<text text-anchor="start" x="552" y="-15.3" font-family="Times,serif" font-weight="bold" font-size="14.00" fill="white">WRITING</text>
</a>
</g>
</g>
</g>
</svg>
