<?xml version="1.0" encoding="UTF-8" standalone="no"?>
<!DOCTYPE svg PUBLIC "-//W3C//DTD SVG 1.1//EN"
 "http://www.w3.org/Graphics/SVG/1.1/DTD/svg11.dtd">
<!-- Generated by graphviz version 2.50.0 (0)
 -->
<!-- Pages: 1 -->
<svg width="686pt" height="44pt"
 viewBox="0.00 0.00 685.50 44.00" xmlns="http://www.w3.org/2000/svg" xmlns:xlink="http://www.w3.org/1999/xlink">
<g id="graph0" class="graph" transform="scale(1 1) rotate(0) translate(4 40)">
<polygon fill="white" stroke="transparent" points="-4,4 -4,-40 681.5,-40 681.5,4 -4,4"/>
<!-- init -->
<g id="node1" class="node">
<title>init</title>
<g id="a_node1"><a xlink:href="../app_init/" xlink:title="INITIALIZATION &#160;" target="_top">
<polygon fill="lightgrey" stroke="transparent" points="115,-30 0,-30 0,-6 115,-6 127,-18 115,-30"/>
<text text-anchor="middle" x="63.5" y="-14.3" font-family="Times,serif" font-size="14.00">INITIALIZATION &#160;</text>
</a>
</g>
</g>
<!-- read -->
<g id="node2" class="node">
<title>read</title>
<g id="a_node2"><a xlink:href="../read/" xlink:title="&lt;b&gt;READING &amp;#160;&amp;#160;&lt;/b&gt;" target="_top">
<polygon fill="#53868b" stroke="transparent" points="225.5,-30 145.5,-30 145.5,-6 225.5,-6 237.5,-18 225.5,-30"/>
<text text-anchor="start" x="153.5" y="-15.3" font-family="Times,serif" font-weight="bold" font-size="14.00" fill="white">READING   </text>
</a>
</g>
</g>
<!-- consistency -->
<g id="node3" class="node">
<title>consistency</title>
<g id="a_node3"><a xlink:href="../consistency/" xlink:title="&lt;b&gt;CONSISTENCY_CHECK &amp;#160;&amp;#160;&lt;/b&gt;" target="_top">
<polygon fill="#53868b" stroke="transparent" points="427.5,-30 255.5,-30 255.5,-6 427.5,-6 439.5,-18 427.5,-30"/>
<text text-anchor="start" x="263.5" y="-15.3" font-family="Times,serif" font-weight="bold" font-size="14.00" fill="white">CONSISTENCY_CHECK   </text>
</a>
</g>
</g>
<!-- resolve -->
<g id="node4" class="node">
<title>resolve</title>
<g id="a_node4"><a xlink:href="../resolve/" xlink:title="&lt;b&gt;RESOLVING &amp;#160;&amp;#160;&lt;/b&gt;" target="_top">
<polygon fill="#53868b" stroke="transparent" points="555.5,-30 457.5,-30 457.5,-6 555.5,-6 567.5,-18 555.5,-30"/>
<text text-anchor="start" x="465.5" y="-15.3" font-family="Times,serif" font-weight="bold" font-size="14.00" fill="white">RESOLVING   </text>
</a>
</g>
</g>
<!-- write -->
<g id="node5" class="node">
<title>write</title>
<g id="a_node5"><a xlink:href="../sphinx/write/" xlink:title="&lt;b&gt;WRITING &amp;#160;&amp;#160;&lt;/b&gt;" target="_top">
<polygon fill="#53868b" stroke="transparent" points="665.5,-30 585.5,-30 585.5,-6 665.5,-6 677.5,-18 665.5,-30"/>
<text text-anchor="start" x="593.5" y="-15.3" font-family="Times,serif" font-weight="bold" font-size="14.00" fill="white">WRITING   </text>
</a>
</g>
</g>
</g>
</svg>
